<svg viewBox="0 0 132 27" fill="none" xmlns="http://www.w3.org/2000/svg">
<path d="M5.54746 12.0629C5.27183 10.9112 5.32225 9.70416 5.69312 8.57593C6.06399 7.44769 6.74081 6.44235 7.64844 5.67151C8.55608 4.90066 9.65902 4.39446 10.8348 4.20911C12.0107 4.02375 13.2133 4.16648 14.3094 4.62147C15.4055 5.07645 16.352 5.82588 17.044 6.78657C17.736 7.74725 17.5782 7.90212 17.5782 7.90212" stroke="#010101" stroke-width="1.97051" stroke-linecap="round"/>
<path d="M16.3154 8.32434C17.8609 7.62126 19.8775 7.69461 21.0212 8.02497C22.1649 8.35533 23.1964 8.99492 24.0011 9.87272C24.8057 10.7505 25.3522 11.8322 25.5797 12.9977C25.8072 14.1632 25.7069 15.3669 25.2899 16.4753" stroke="#010101" stroke-width="1.97051" stroke-linecap="round"/>
<g filter="url(#filter0_d_501_1572)">
<path d="M2.71094 13.4563C3.42043 12.8131 4.29296 12.3807 5.23167 12.2068C6.17038 12.033 7.13854 12.1246 8.02868 12.4716" stroke="#010101" stroke-width="1.97051" stroke-linecap="round"/>
</g>
<path d="M7.91441 22.2189C7.01644 22.5447 6.04642 22.6134 5.11201 22.4175C4.17761 22.2216 3.31538 21.7686 2.62103 21.1089C1.92669 20.4492 1.4274 19.6085 1.17858 18.6802C0.929764 17.7519 0.941157 16.7724 1.21149 15.8502C1.48183 14.9281 2.00054 14.0994 2.71004 13.4563C3.41953 12.8131 4.29206 12.3807 5.23077 12.2068C6.16947 12.033 7.13763 12.1246 8.02778 12.4716C8.91792 12.8185 9.69522 13.4071 10.2734 14.1721" stroke="#010101" stroke-width="1.97051" stroke-linecap="round"/>
<path d="M12.1582 22.1979C12.385 21.8148 13.0835 21.0484 14.0631 21.0484C15.2877 21.0484 14.7435 21.6232 16.2402 21.3358C17.737 21.0484 17.4648 20.1863 18.9616 19.6116C20.4583 19.0369 19.914 20.1863 21.1386 19.899C22.1183 19.6691 22.9982 19.0369 23.3157 18.7495" stroke="#010101" stroke-width="1.97051" stroke-linecap="round" stroke-linejoin="round"/>
<path d="M42.4 21.3C41.3933 21.3 40.4867 21.1333 39.68 20.8C38.88 20.46 38.2167 19.98 37.69 19.36C37.17 18.74 36.83 18.0033 36.67 17.15L38.17 16.9C38.41 17.8333 38.9167 18.5667 39.69 19.1C40.4633 19.6267 41.3867 19.89 42.46 19.89C43.1667 19.89 43.8 19.78 44.36 19.56C44.92 19.3333 45.36 19.0133 45.68 18.6C46 18.1867 46.16 17.6967 46.16 17.13C46.16 16.7567 46.0933 16.44 45.96 16.18C45.8267 15.9133 45.65 15.6933 45.43 15.52C45.21 15.3467 44.97 15.2033 44.71 15.09C44.45 14.97 44.1967 14.8733 43.95 14.8L40.3 13.71C39.86 13.5833 39.4533 13.4233 39.08 13.23C38.7067 13.03 38.38 12.7933 38.1 12.52C37.8267 12.24 37.6133 11.9133 37.46 11.54C37.3067 11.1667 37.23 10.74 37.23 10.26C37.23 9.44667 37.4433 8.74333 37.87 8.15C38.2967 7.55667 38.88 7.1 39.62 6.78C40.36 6.46 41.2033 6.30333 42.15 6.31C43.11 6.31 43.9667 6.48 44.72 6.82C45.48 7.16 46.1067 7.64667 46.6 8.28C47.0933 8.90667 47.42 9.65 47.58 10.51L46.04 10.79C45.94 10.1633 45.71 9.62 45.35 9.16C44.99 8.7 44.53 8.34667 43.97 8.1C43.4167 7.84667 42.8067 7.71667 42.14 7.71C41.4933 7.71 40.9167 7.82 40.41 8.04C39.91 8.25333 39.5133 8.54667 39.22 8.92C38.9267 9.29333 38.78 9.72 38.78 10.2C38.78 10.6867 38.9133 11.0767 39.18 11.37C39.4533 11.6633 39.7867 11.8933 40.18 12.06C40.58 12.2267 40.9667 12.3633 41.34 12.47L44.16 13.3C44.4533 13.38 44.7967 13.4967 45.19 13.65C45.59 13.7967 45.9767 14.01 46.35 14.29C46.73 14.5633 47.0433 14.9233 47.29 15.37C47.5367 15.8167 47.66 16.3833 47.66 17.07C47.66 17.7367 47.5267 18.3333 47.26 18.86C47 19.3867 46.63 19.83 46.15 20.19C45.6767 20.55 45.12 20.8233 44.48 21.01C43.8467 21.2033 43.1533 21.3 42.4 21.3ZM53.8542 21.27C53.2076 21.27 52.6409 21.17 52.1542 20.97C51.6742 20.77 51.2642 20.5 50.9242 20.16C50.5909 19.82 50.3209 19.4333 50.1142 19C49.9076 18.56 49.7576 18.0967 49.6642 17.61C49.5709 17.1167 49.5242 16.6267 49.5242 16.14V10.2H51.0042V15.71C51.0042 16.3033 51.0609 16.8533 51.1742 17.36C51.2876 17.8667 51.4676 18.31 51.7142 18.69C51.9676 19.0633 52.2909 19.3533 52.6842 19.56C53.0842 19.7667 53.5676 19.87 54.1342 19.87C54.6542 19.87 55.1109 19.78 55.5042 19.6C55.9042 19.42 56.2376 19.1633 56.5042 18.83C56.7776 18.49 56.9842 18.08 57.1242 17.6C57.2642 17.1133 57.3342 16.5667 57.3342 15.96L58.3742 16.19C58.3742 17.2967 58.1809 18.2267 57.7942 18.98C57.4076 19.7333 56.8742 20.3033 56.1942 20.69C55.5142 21.0767 54.7342 21.27 53.8542 21.27ZM57.4842 21V18.34H57.3342V10.2H58.8042V21H57.4842ZM66.4492 21.3C65.4559 21.3 64.6159 21.05 63.9292 20.55C63.2426 20.0433 62.7226 19.36 62.3692 18.5C62.0159 17.6333 61.8392 16.6633 61.8392 15.59C61.8392 14.4967 62.0159 13.5233 62.3692 12.67C62.7292 11.81 63.2559 11.1333 63.9492 10.64C64.6426 10.1467 65.4959 9.9 66.5092 9.9C67.4959 9.9 68.3426 10.15 69.0492 10.65C69.7559 11.15 70.2959 11.83 70.6692 12.69C71.0492 13.55 71.2392 14.5167 71.2392 15.59C71.2392 16.67 71.0492 17.64 70.6692 18.5C70.2892 19.36 69.7426 20.0433 69.0292 20.55C68.3159 21.05 67.4559 21.3 66.4492 21.3ZM61.5892 25.8V10.2H62.9092V18.33H63.0692V25.8H61.5892ZM66.2992 19.93C67.0526 19.93 67.6792 19.74 68.1792 19.36C68.6792 18.98 69.0526 18.4633 69.2992 17.81C69.5526 17.15 69.6792 16.41 69.6792 15.59C69.6792 14.7767 69.5559 14.0433 69.3092 13.39C69.0626 12.7367 68.6859 12.22 68.1792 11.84C67.6792 11.46 67.0426 11.27 66.2692 11.27C65.5159 11.27 64.8892 11.4533 64.3892 11.82C63.8959 12.1867 63.5259 12.6967 63.2792 13.35C63.0326 13.9967 62.9092 14.7433 62.9092 15.59C62.9092 16.4233 63.0326 17.17 63.2792 17.83C63.5259 18.4833 63.8992 18.9967 64.3992 19.37C64.8992 19.7433 65.5326 19.93 66.2992 19.93ZM78.0052 21.3C76.9518 21.3 76.0385 21.0667 75.2652 20.6C74.4985 20.1333 73.9018 19.4767 73.4752 18.63C73.0485 17.7833 72.8352 16.79 72.8352 15.65C72.8352 14.47 73.0452 13.45 73.4652 12.59C73.8852 11.73 74.4752 11.0667 75.2352 10.6C76.0018 10.1333 76.9052 9.9 77.9452 9.9C79.0118 9.9 79.9218 10.1467 80.6752 10.64C81.4285 11.1267 81.9985 11.8267 82.3852 12.74C82.7718 13.6533 82.9485 14.7433 82.9152 16.01H81.4152V15.49C81.3885 14.09 81.0852 13.0333 80.5052 12.32C79.9318 11.6067 79.0918 11.25 77.9852 11.25C76.8252 11.25 75.9352 11.6267 75.3152 12.38C74.7018 13.1333 74.3952 14.2067 74.3952 15.6C74.3952 16.96 74.7018 18.0167 75.3152 18.77C75.9352 19.5167 76.8118 19.89 77.9452 19.89C78.7185 19.89 79.3918 19.7133 79.9652 19.36C80.5452 19 81.0018 18.4833 81.3352 17.81L82.7052 18.34C82.2785 19.28 81.6485 20.01 80.8152 20.53C79.9885 21.0433 79.0518 21.3 78.0052 21.3ZM73.8752 16.01V14.78H82.1252V16.01H73.8752ZM85.1344 21V10.2H86.4544V12.8L86.1944 12.46C86.3144 12.14 86.471 11.8467 86.6644 11.58C86.8577 11.3067 87.0677 11.0833 87.2944 10.91C87.5744 10.6633 87.901 10.4767 88.2744 10.35C88.6477 10.2167 89.0244 10.14 89.4044 10.12C89.7844 10.0933 90.131 10.12 90.4444 10.2V11.58C90.051 11.48 89.621 11.4567 89.1544 11.51C88.6877 11.5633 88.2577 11.75 87.8644 12.07C87.5044 12.35 87.2344 12.6867 87.0544 13.08C86.8744 13.4667 86.7544 13.88 86.6944 14.32C86.6344 14.7533 86.6044 15.1833 86.6044 15.61V21H85.1344ZM92.5414 21V6.3H94.0114V21H92.5414ZM97.2094 8.15V6.5H98.6794V8.15H97.2094ZM97.2094 21V10.2H98.6794V21H97.2094ZM105.967 26.1C105.414 26.1 104.867 26.0167 104.327 25.85C103.794 25.69 103.301 25.4333 102.847 25.08C102.394 24.7333 102.014 24.28 101.707 23.72L103.037 22.98C103.337 23.58 103.757 24.01 104.297 24.27C104.844 24.5367 105.401 24.67 105.967 24.67C106.747 24.67 107.377 24.5233 107.857 24.23C108.344 23.9433 108.697 23.5167 108.917 22.95C109.137 22.3833 109.244 21.6767 109.237 20.83V17.95H109.407V10.2H110.717V20.85C110.717 21.1567 110.707 21.45 110.687 21.73C110.674 22.0167 110.644 22.2967 110.597 22.57C110.471 23.3767 110.207 24.04 109.807 24.56C109.414 25.08 108.894 25.4667 108.247 25.72C107.607 25.9733 106.847 26.1 105.967 26.1ZM105.867 21.3C104.861 21.3 104.001 21.05 103.287 20.55C102.574 20.0433 102.027 19.36 101.647 18.5C101.267 17.64 101.077 16.67 101.077 15.59C101.077 14.5167 101.264 13.55 101.637 12.69C102.017 11.83 102.561 11.15 103.267 10.65C103.974 10.15 104.821 9.9 105.807 9.9C106.821 9.9 107.674 10.1467 108.367 10.64C109.061 11.1333 109.584 11.81 109.937 12.67C110.297 13.5233 110.477 14.4967 110.477 15.59C110.477 16.6633 110.301 17.6333 109.947 18.5C109.594 19.36 109.074 20.0433 108.387 20.55C107.701 21.05 106.861 21.3 105.867 21.3ZM106.017 19.93C106.784 19.93 107.417 19.7433 107.917 19.37C108.417 18.9967 108.791 18.4833 109.037 17.83C109.284 17.17 109.407 16.4233 109.407 15.59C109.407 14.7433 109.284 13.9967 109.037 13.35C108.791 12.6967 108.417 12.1867 107.917 11.82C107.424 11.4533 106.801 11.27 106.047 11.27C105.274 11.27 104.634 11.46 104.127 11.84C103.621 12.22 103.244 12.7367 102.997 13.39C102.757 14.0433 102.637 14.7767 102.637 15.59C102.637 16.41 102.761 17.15 103.007 17.81C103.261 18.4633 103.637 18.98 104.137 19.36C104.637 19.74 105.264 19.93 106.017 19.93ZM121.313 21V15.49C121.313 14.89 121.257 14.34 121.143 13.84C121.03 13.3333 120.847 12.8933 120.593 12.52C120.347 12.14 120.023 11.8467 119.623 11.64C119.23 11.4333 118.75 11.33 118.183 11.33C117.663 11.33 117.203 11.42 116.803 11.6C116.41 11.78 116.077 12.04 115.803 12.38C115.537 12.7133 115.333 13.12 115.193 13.6C115.053 14.08 114.983 14.6267 114.983 15.24L113.943 15.01C113.943 13.9033 114.137 12.9733 114.523 12.22C114.91 11.4667 115.443 10.8967 116.123 10.51C116.803 10.1233 117.583 9.93 118.463 9.93C119.11 9.93 119.673 10.03 120.153 10.23C120.64 10.43 121.05 10.7 121.383 11.04C121.723 11.38 121.997 11.77 122.203 12.21C122.41 12.6433 122.56 13.1067 122.653 13.6C122.747 14.0867 122.793 14.5733 122.793 15.06V21H121.313ZM113.503 21V6.6H114.833V14.73H114.983V21H113.503ZM131.268 21C130.662 21.1267 130.062 21.1767 129.468 21.15C128.882 21.1233 128.355 20.9967 127.888 20.77C127.428 20.5433 127.078 20.19 126.838 19.71C126.645 19.31 126.538 18.9067 126.518 18.5C126.505 18.0867 126.498 17.6167 126.498 17.09V7.2H127.958V17.03C127.958 17.4833 127.962 17.8633 127.968 18.17C127.982 18.47 128.052 18.7367 128.178 18.97C128.418 19.4167 128.798 19.6833 129.318 19.77C129.845 19.8567 130.495 19.8367 131.268 19.71V21ZM124.188 11.46V10.2H131.268V11.46H124.188Z" fill="#060606"/>
<defs>
<filter id="filter0_d_501_1572" x="0.0844691" y="8.83681" width="10.5713" height="6.58985" filterUnits="userSpaceOnUse" color-interpolation-filters="sRGB">
<feFlood flood-opacity="0" result="BackgroundImageFix"/>
<feColorMatrix in="SourceAlpha" type="matrix" values="0 0 0 0 0 0 0 0 0 0 0 0 0 0 0 0 0 0 127 0" result="hardAlpha"/>
<feOffset dy="-0.656837"/>
<feGaussianBlur stdDeviation="0.821047"/>
<feComposite in2="hardAlpha" operator="out"/>
<feColorMatrix type="matrix" values="0 0 0 0 0 0 0 0 0 0 0 0 0 0 0 0 0 0 0.15 0"/>
<feBlend mode="normal" in2="BackgroundImageFix" result="effect1_dropShadow_501_1572"/>
<feBlend mode="normal" in="SourceGraphic" in2="effect1_dropShadow_501_1572" result="shape"/>
</filter>
</defs>
</svg>
