<svg width="150" height="41" viewBox="0 0 150 41" fill="none" xmlns="http://www.w3.org/2000/svg">
<path d="M57.6374 27.5849C57.0953 27.5849 56.5318 27.5492 55.9469 27.4779C55.3763 27.4066 54.8129 27.2853 54.2565 27.1141C53.7002 26.9429 53.1795 26.7432 52.6945 26.515C52.3093 26.3153 52.0383 26.0585 51.8814 25.7447C51.7387 25.4166 51.6888 25.0813 51.7316 24.739C51.7887 24.3966 51.9171 24.0971 52.1168 23.8403C52.3307 23.5835 52.6018 23.4123 52.9299 23.3267C53.2722 23.2412 53.6574 23.2982 54.0853 23.4979C54.7273 23.8118 55.3977 24.0329 56.0967 24.1613C56.81 24.2896 57.4519 24.3538 58.0225 24.3538C58.8356 24.3538 59.4561 24.2254 59.8841 23.9687C60.3263 23.6976 60.5474 23.3624 60.5474 22.963C60.5474 22.6349 60.4119 22.3639 60.1409 22.1499C59.8841 21.9216 59.4704 21.7433 58.8998 21.6149L56.4391 21.0158C55.3549 20.7733 54.4919 20.3097 53.85 19.625C53.2223 18.9402 52.9085 18.0915 52.9085 17.0786C52.9085 16.2655 53.0797 15.5523 53.422 14.9389C53.7644 14.3112 54.2351 13.7834 54.8343 13.3555C55.4334 12.9132 56.1181 12.5851 56.8884 12.3712C57.6587 12.1429 58.4647 12.0288 59.3064 12.0288C59.9911 12.0288 60.7329 12.1073 61.5317 12.2642C62.3306 12.4211 63.0937 12.6993 63.8213 13.0987C64.1636 13.2699 64.4061 13.5052 64.5488 13.8048C64.7057 14.1044 64.7699 14.4182 64.7414 14.7463C64.7128 15.0601 64.5916 15.3383 64.3776 15.5808C64.1779 15.8233 63.8926 15.9874 63.5217 16.073C63.1651 16.1443 62.7371 16.0801 62.2378 15.8804C61.7956 15.6807 61.3106 15.5309 60.7828 15.431C60.255 15.3169 59.7557 15.2598 59.285 15.2598C58.7572 15.2598 58.3007 15.324 57.9155 15.4524C57.5446 15.5665 57.2593 15.7306 57.0596 15.9446C56.8599 16.1585 56.76 16.4011 56.76 16.6721C56.76 17.0002 56.8813 17.2712 57.1238 17.4852C57.3663 17.6992 57.7443 17.8704 58.2579 17.9987L60.7186 18.5765C61.8883 18.8475 62.7942 19.3325 63.4361 20.0315C64.078 20.7162 64.399 21.5436 64.399 22.5136C64.399 23.3695 64.2135 24.1185 63.8427 24.7604C63.486 25.388 62.9868 25.9159 62.3448 26.3438C61.7172 26.7575 60.9968 27.0713 60.1837 27.2853C59.3706 27.485 58.5218 27.5849 57.6374 27.5849Z" fill="white"/>
<path d="M68.4938 27.5849C67.752 27.5849 67.1101 27.428 66.568 27.1141C66.0402 26.8003 65.6622 26.3081 65.4339 25.6377C65.22 24.9672 65.1914 24.1042 65.3483 23.0486L66.0973 18.3839C66.1971 17.7848 66.4182 17.3425 66.7606 17.0572C67.1029 16.7719 67.5666 16.6293 68.1514 16.6293C68.8076 16.6293 69.2784 16.8076 69.5637 17.1642C69.8632 17.5209 69.9631 18.0344 69.8632 18.7049L69.1785 22.9844C69.1072 23.5407 69.15 23.9615 69.3069 24.2468C69.4638 24.5321 69.7705 24.6748 70.227 24.6748C70.7833 24.6748 71.247 24.4751 71.6178 24.0757C71.9887 23.6762 72.2312 23.1199 72.3454 22.4066L72.9873 18.3839C73.0871 17.7848 73.3083 17.3425 73.6506 17.0572C73.993 16.7719 74.4566 16.6293 75.0415 16.6293C75.6834 16.6293 76.147 16.8076 76.4323 17.1642C76.7319 17.5209 76.8317 18.0344 76.7319 18.7049L75.6192 25.7875C75.4338 26.9572 74.749 27.5421 73.565 27.5421C72.9659 27.5421 72.5308 27.3923 72.2598 27.0927C71.9887 26.7789 71.9031 26.2867 72.003 25.6163L72.1742 24.4608L72.1528 25.4023C71.7676 26.1441 71.2541 26.6933 70.6122 27.0499C69.9845 27.4066 69.2784 27.5849 68.4938 27.5849Z" fill="white"/>
<path d="M78.1994 31.3936C77.6003 31.3936 77.1652 31.2011 76.8942 30.8159C76.6232 30.4307 76.5376 29.8887 76.6374 29.1897L78.3278 18.5123C78.4277 17.8846 78.6559 17.4139 79.0126 17.1C79.3692 16.7862 79.8613 16.6293 80.489 16.6293C81.0881 16.6293 81.5161 16.829 81.7728 17.2284C82.0439 17.6136 82.1223 18.1557 82.0082 18.8546L81.9012 19.5394L81.9226 18.4695C82.3221 17.8704 82.8285 17.4067 83.4419 17.0786C84.0553 16.7505 84.7257 16.5865 85.4532 16.5865C86.2378 16.5865 86.9225 16.7719 87.5074 17.1428C88.0923 17.5137 88.5416 18.0415 88.8555 18.7263C89.1836 19.411 89.3476 20.2241 89.3476 21.1656C89.3476 22.3924 89.1265 23.4908 88.6843 24.4608C88.2421 25.4308 87.6215 26.194 86.8227 26.7504C86.0238 27.3067 85.0895 27.5849 84.0196 27.5849C83.2635 27.5849 82.6002 27.4208 82.0296 27.0927C81.459 26.7504 81.0525 26.2582 80.81 25.6163L81.0025 25.6377L80.382 29.5321C80.2964 30.1597 80.0682 30.6233 79.6973 30.9229C79.3407 31.2367 78.8414 31.3936 78.1994 31.3936ZM83.2065 24.7818C83.6915 24.7818 84.1052 24.6391 84.4475 24.3538C84.7899 24.0543 85.0538 23.6477 85.2393 23.1342C85.4247 22.6206 85.5174 22.0358 85.5174 21.3796C85.5174 20.7376 85.3676 20.2455 85.0681 19.9031C84.7828 19.5608 84.3834 19.3896 83.8698 19.3896C83.3848 19.3896 82.9711 19.5394 82.6288 19.8389C82.2864 20.1242 82.0154 20.5237 81.8156 21.0372C81.6302 21.5507 81.5375 22.1356 81.5375 22.7918C81.5375 23.4337 81.6873 23.9259 81.9868 24.2682C82.2864 24.6106 82.6929 24.7818 83.2065 24.7818Z" fill="white"/>
<path d="M95.5126 27.5849C94.3857 27.5849 93.4014 27.3852 92.5597 26.9857C91.7181 26.572 91.0619 25.9943 90.5912 25.2525C90.1204 24.5107 89.885 23.6477 89.885 22.6634C89.885 21.4509 90.1489 20.3881 90.6768 19.4752C91.2188 18.5622 91.9464 17.8561 92.8593 17.3568C93.7865 16.8433 94.8136 16.5865 95.9406 16.5865C96.8535 16.5865 97.6238 16.7363 98.2515 17.0358C98.8934 17.3354 99.3998 17.742 99.7707 18.2555C100.156 18.7691 100.413 19.3539 100.541 20.0101C100.669 20.652 100.691 21.3154 100.605 22.0001C100.562 22.3567 100.463 22.5921 100.306 22.7062C100.149 22.8061 99.9419 22.856 99.6852 22.856H92.9877L93.2445 21.0586H97.9947L97.6524 21.3368C97.7237 20.8946 97.7023 20.5023 97.5882 20.1599C97.4883 19.8175 97.2957 19.5536 97.0104 19.3682C96.7394 19.1685 96.3685 19.0686 95.8978 19.0686C95.4413 19.0686 95.0561 19.1685 94.7423 19.3682C94.4285 19.5679 94.1717 19.8389 93.972 20.1813C93.7865 20.5237 93.6653 20.9088 93.6082 21.3368L93.4584 22.1713C93.3301 23.0129 93.487 23.662 93.9292 24.1185C94.3714 24.5607 95.0419 24.7818 95.9406 24.7818C96.2687 24.7818 96.6324 24.7461 97.0318 24.6748C97.4455 24.6035 97.8022 24.4965 98.1017 24.3538C98.4869 24.1969 98.8078 24.1613 99.0646 24.2468C99.3357 24.3324 99.5354 24.4965 99.6638 24.739C99.7921 24.9672 99.8421 25.224 99.8135 25.5093C99.7993 25.7946 99.7065 26.0728 99.5354 26.3438C99.3642 26.6006 99.1074 26.8003 98.7651 26.9429C98.2658 27.1712 97.7308 27.3352 97.1602 27.4351C96.6039 27.5349 96.0547 27.5849 95.5126 27.5849Z" fill="white"/>
<path d="M102.674 27.5421C102.075 27.5421 101.633 27.3566 101.347 26.9857C101.076 26.6148 100.991 26.0942 101.091 25.4237L102.182 18.4267C102.282 17.8276 102.51 17.3782 102.867 17.0786C103.238 16.7791 103.723 16.6293 104.322 16.6293C104.921 16.6293 105.356 16.8147 105.627 17.1856C105.898 17.5423 105.976 18.0629 105.862 18.7477L105.755 19.411H105.563C105.82 18.5693 106.262 17.8989 106.889 17.3996C107.531 16.8861 108.266 16.615 109.093 16.5865C109.55 16.5722 109.878 16.665 110.078 16.8647C110.277 17.0501 110.377 17.3711 110.377 17.8276C110.377 18.498 110.22 18.9973 109.907 19.3254C109.607 19.6392 109.143 19.8247 108.516 19.8817L107.724 19.9673C106.982 20.0386 106.447 20.2526 106.119 20.6092C105.805 20.9659 105.584 21.5222 105.456 22.2783L104.921 25.7233C104.821 26.3367 104.586 26.7932 104.215 27.0927C103.844 27.3923 103.33 27.5421 102.674 27.5421Z" fill="white"/>
<path d="M113.043 27.5207C112.088 27.5207 111.389 27.2354 110.946 26.6648C110.504 26.0942 110.376 25.2454 110.561 24.1185L112.359 12.7777C112.401 12.5495 112.48 12.3854 112.594 12.2856C112.722 12.1857 112.893 12.1358 113.107 12.1358C113.307 12.1358 113.457 12.2 113.557 12.3284C113.657 12.4568 113.685 12.6493 113.642 12.9061L111.866 24.1185C111.724 24.9316 111.774 25.5164 112.016 25.8731C112.273 26.2154 112.715 26.3866 113.343 26.3866C113.557 26.3866 113.721 26.3723 113.835 26.3438C113.949 26.3153 114.042 26.301 114.113 26.301C114.199 26.301 114.263 26.3295 114.306 26.3866C114.363 26.4437 114.391 26.5578 114.391 26.729C114.391 26.9287 114.334 27.0927 114.22 27.2211C114.12 27.3352 113.978 27.4137 113.792 27.4565C113.692 27.4707 113.564 27.485 113.407 27.4993C113.264 27.5135 113.143 27.5207 113.043 27.5207Z" fill="white"/>
<path d="M116.149 27.4779C115.935 27.4779 115.778 27.4137 115.679 27.2853C115.593 27.1569 115.572 26.9643 115.614 26.7076L117.069 17.4852C117.112 17.257 117.191 17.0929 117.305 16.9931C117.433 16.8789 117.604 16.8219 117.818 16.8219C118.018 16.8219 118.168 16.8932 118.268 17.0358C118.367 17.1642 118.396 17.3497 118.353 17.5922L116.898 26.836C116.87 27.0499 116.791 27.214 116.663 27.3281C116.534 27.428 116.363 27.4779 116.149 27.4779Z" fill="white"/>
<path d="M123.931 31.3722C123.118 31.3722 122.362 31.251 121.663 31.0085C120.964 30.7802 120.329 30.4664 119.759 30.067C119.63 29.9957 119.552 29.9029 119.523 29.7888C119.495 29.6747 119.495 29.5606 119.523 29.4465C119.566 29.3323 119.63 29.2325 119.716 29.1469C119.801 29.0756 119.901 29.0328 120.015 29.0185C120.144 29.0042 120.272 29.0399 120.401 29.1255C120.928 29.4964 121.456 29.7817 121.984 29.9814C122.526 30.1811 123.139 30.281 123.824 30.281C124.766 30.281 125.529 30.0313 126.114 29.5321C126.713 29.047 127.098 28.291 127.269 27.2639L127.697 24.5892L127.868 24.6106C127.512 25.3809 126.984 25.9943 126.285 26.4508C125.586 26.893 124.773 27.1141 123.846 27.1141C123.018 27.1141 122.298 26.9429 121.684 26.6006C121.071 26.244 120.593 25.7518 120.251 25.1241C119.908 24.4822 119.737 23.7333 119.737 22.8774C119.737 22.0786 119.851 21.3154 120.08 20.5879C120.308 19.8603 120.643 19.2113 121.085 18.6407C121.527 18.0701 122.07 17.6207 122.711 17.2926C123.368 16.9503 124.117 16.7791 124.958 16.7791C125.828 16.7791 126.599 17.0002 127.269 17.4424C127.94 17.8704 128.396 18.5408 128.639 19.4538L128.446 19.6036L128.788 17.4638C128.831 17.2498 128.91 17.0929 129.024 16.9931C129.152 16.8789 129.323 16.8219 129.537 16.8219C129.737 16.8219 129.88 16.8932 129.965 17.0358C130.065 17.1642 130.094 17.3497 130.051 17.5922L128.532 27.1997C128.303 28.5977 127.811 29.639 127.055 30.3238C126.299 31.0228 125.258 31.3722 123.931 31.3722ZM124.124 26.0014C124.994 26.0014 125.721 25.7732 126.306 25.3167C126.905 24.846 127.355 24.2326 127.654 23.4765C127.968 22.7205 128.125 21.9074 128.125 21.0372C128.125 20.0386 127.854 19.2683 127.312 18.7263C126.77 18.1699 126.014 17.8918 125.044 17.8918C124.188 17.8918 123.46 18.1271 122.861 18.5979C122.262 19.0544 121.813 19.6606 121.513 20.4167C121.214 21.1585 121.064 21.9644 121.064 22.8346C121.064 23.8474 121.328 24.632 121.856 25.1883C122.398 25.7304 123.154 26.0014 124.124 26.0014Z" fill="white"/>
<path d="M131.979 27.4779C131.765 27.4779 131.608 27.4137 131.509 27.2853C131.423 27.1427 131.402 26.9501 131.444 26.7076L133.648 12.7777C133.691 12.5637 133.77 12.4068 133.884 12.307C134.012 12.1929 134.183 12.1358 134.397 12.1358C134.597 12.1358 134.747 12.2 134.847 12.3284C134.946 12.4568 134.975 12.6422 134.932 12.8847L133.884 19.4324H133.648C134.005 18.605 134.533 17.9559 135.232 17.4852C135.945 17.0145 136.794 16.7791 137.778 16.7791C138.548 16.7791 139.19 16.936 139.704 17.2498C140.232 17.5637 140.603 18.0344 140.817 18.6621C141.045 19.2897 141.08 20.0814 140.924 21.0372L140.025 26.836C139.996 27.0499 139.911 27.214 139.768 27.3281C139.64 27.428 139.468 27.4779 139.255 27.4779C139.041 27.4779 138.884 27.4137 138.784 27.2853C138.698 27.1569 138.677 26.9643 138.72 26.7076L139.618 21.0372C139.789 19.9816 139.697 19.197 139.34 18.6835C138.983 18.1699 138.377 17.9132 137.521 17.9132C136.38 17.9132 135.474 18.2555 134.804 18.9402C134.148 19.625 133.727 20.5451 133.541 21.7005L132.75 26.836C132.678 27.2639 132.422 27.4779 131.979 27.4779Z" fill="white"/>
<path d="M146.67 27.5207C145.914 27.5207 145.287 27.378 144.787 27.0927C144.302 26.7932 143.96 26.3795 143.76 25.8517C143.575 25.3096 143.539 24.6677 143.653 23.9259L144.595 18.0201H143.097C142.911 18.0201 142.762 17.9845 142.648 17.9132C142.533 17.8276 142.476 17.7134 142.476 17.5708C142.476 17.3711 142.541 17.2213 142.669 17.1214C142.812 17.0216 142.983 16.9717 143.182 16.9717H144.744L145.194 14.2542C145.222 14.0402 145.301 13.8833 145.429 13.7834C145.558 13.6836 145.722 13.6336 145.921 13.6336C146.135 13.6336 146.285 13.6978 146.371 13.8262C146.471 13.9546 146.506 14.14 146.478 14.3825L146.05 16.9717H148.853C149.053 16.9717 149.202 17.0073 149.302 17.0786C149.416 17.15 149.473 17.257 149.473 17.3996C149.473 17.5993 149.409 17.7562 149.281 17.8704C149.167 17.9702 149.003 18.0201 148.789 18.0201H145.879L144.98 23.7547C144.837 24.6819 144.93 25.3524 145.258 25.7661C145.586 26.1798 146.114 26.3866 146.841 26.3866C147.155 26.3866 147.398 26.3581 147.569 26.301C147.754 26.2297 147.904 26.194 148.018 26.194C148.132 26.194 148.218 26.2297 148.275 26.301C148.332 26.3581 148.361 26.4651 148.361 26.622C148.361 26.836 148.325 26.9929 148.254 27.0927C148.197 27.1926 148.097 27.271 147.954 27.3281C147.797 27.3852 147.59 27.428 147.334 27.4565C147.091 27.4993 146.87 27.5207 146.67 27.5207Z" fill="white"/>
<rect x="0.523311" y="0.523311" width="39.0739" height="39.0739" rx="8.19854" fill="#181818" stroke="white" stroke-width="1.04662"/>
<path d="M11.9876 18.5393C11.6945 17.3158 11.7481 16.0336 12.1424 14.8351C12.5367 13.6366 13.2562 12.5687 14.2211 11.7498C15.1861 10.9309 16.3586 10.3932 17.6086 10.1963C18.8587 9.99941 20.1373 10.151 21.3025 10.6344C22.4677 11.1177 23.474 11.9138 24.2097 12.9343C24.9453 13.9548 24.7776 14.1193 24.7776 14.1193" stroke="white" stroke-width="2.09324" stroke-linecap="round"/>
<path d="M23.4334 14.5675C25.0765 13.8206 27.2203 13.8985 28.4362 14.2495C29.6521 14.6004 30.7487 15.2798 31.6041 16.2123C32.4596 17.1448 33.0405 18.2938 33.2824 19.5319C33.5243 20.77 33.4176 22.0487 32.9743 23.2261" stroke="white" stroke-width="2.09324" stroke-linecap="round"/>
<g filter="url(#filter0_d_86_181)">
<path d="M8.96973 20.0189C9.724 19.3357 10.6516 18.8763 11.6496 18.6917C12.6475 18.507 13.6768 18.6043 14.6231 18.9729" stroke="white" stroke-width="2.09324" stroke-linecap="round"/>
</g>
<path d="M14.5027 29.3273C13.548 29.6734 12.5168 29.7464 11.5234 29.5383C10.53 29.3301 9.61337 28.849 8.8752 28.1482C8.13703 27.4474 7.60623 26.5543 7.34171 25.5682C7.07719 24.5822 7.0893 23.5416 7.3767 22.562C7.6641 21.5824 8.21554 20.7021 8.96982 20.0189C9.7241 19.3357 10.6517 18.8763 11.6496 18.6917C12.6476 18.507 13.6769 18.6043 14.6232 18.9729C15.5695 19.3414 16.3959 19.9667 17.0105 20.7794" stroke="white" stroke-width="2.09324" stroke-linecap="round"/>
<path d="M19.0137 29.3053C19.2548 28.8982 19.9973 28.0842 21.0388 28.0842C22.3407 28.0842 21.7621 28.6947 23.3533 28.3895C24.9445 28.0842 24.6552 27.1684 26.2464 26.5579C27.8376 25.9474 27.259 27.1684 28.5609 26.8632C29.6024 26.6189 30.5379 25.9474 30.8754 25.6421" stroke="white" stroke-width="2.09324" stroke-linecap="round" stroke-linejoin="round"/>
<defs>
<filter id="filter0_d_86_181" x="6.17897" y="15.1118" width="11.2353" height="7.00046" filterUnits="userSpaceOnUse" color-interpolation-filters="sRGB">
<feFlood flood-opacity="0" result="BackgroundImageFix"/>
<feColorMatrix in="SourceAlpha" type="matrix" values="0 0 0 0 0 0 0 0 0 0 0 0 0 0 0 0 0 0 127 0" result="hardAlpha"/>
<feOffset dy="-0.697748"/>
<feGaussianBlur stdDeviation="0.872185"/>
<feComposite in2="hardAlpha" operator="out"/>
<feColorMatrix type="matrix" values="0 0 0 0 0 0 0 0 0 0 0 0 0 0 0 0 0 0 0.15 0"/>
<feBlend mode="normal" in2="BackgroundImageFix" result="effect1_dropShadow_86_181"/>
<feBlend mode="normal" in="SourceGraphic" in2="effect1_dropShadow_86_181" result="shape"/>
</filter>
</defs>
</svg>
